<svg width="16" height="15" viewBox="0 0 16 15" fill="none" xmlns="http://www.w3.org/2000/svg">
<g id="Icon" clip-path="url(#clip0_155_748)">
<path id="Vector" d="M15.181 0.540039C15.3529 0.665039 15.4232 0.831706 15.392 1.04004L13.392 13.04C13.3659 13.1911 13.2826 13.3083 13.142 13.3916C13.0691 13.4333 12.9883 13.4541 12.8998 13.4541C12.8425 13.4541 12.78 13.4411 12.7123 13.415L9.17323 11.9697L7.28261 14.2744C7.18886 14.3942 7.06125 14.4541 6.89979 14.4541C6.83209 14.4541 6.77479 14.4437 6.72792 14.4229C6.62896 14.3864 6.54953 14.3252 6.48964 14.2393C6.42974 14.1533 6.39979 14.0583 6.39979 13.9541V11.2275L13.1498 2.9541L4.79823 10.1807L1.71229 8.91504C1.51959 8.84212 1.41542 8.69889 1.39979 8.48535C1.38938 8.27702 1.47271 8.12337 1.64979 8.02441L14.6498 0.524414C14.7279 0.477539 14.8113 0.454102 14.8998 0.454102C15.004 0.454102 15.0977 0.482747 15.181 0.540039Z" fill="white"/>
</g>
<defs>
<clipPath id="clip0_155_748">
<rect width="15.2" height="14" fill="white" transform="matrix(1 0 0 -1 0.799805 14.4541)"/>
</clipPath>
</defs>
</svg>
